<mxfile host="app.diagrams.net" agent="Mozilla/5.0 (Windows NT 10.0; Win64; x64) AppleWebKit/537.36 (KHTML, like Gecko) Chrome/139.0.0.0 Safari/537.36" version="28.1.0">
  <diagram name="第 1 页" id="jdtDRDNVIYTzPWDmrWf7">
    <mxGraphModel dx="1810" dy="518" grid="1" gridSize="10" guides="1" tooltips="1" connect="1" arrows="1" fold="0" page="1" pageScale="1" pageWidth="827" pageHeight="1169" math="0" shadow="0">
      <root>
        <mxCell id="0" />
        <mxCell id="1" parent="0" />
        <mxCell id="eEyu-ZopEJ078TrSKXww-7" value="MO-62-05&lt;div&gt;(70)&lt;/div&gt;" style="rounded=1;whiteSpace=wrap;html=1;movable=1;resizable=1;rotatable=1;deletable=1;editable=1;locked=0;connectable=1;" vertex="1" parent="1">
          <mxGeometry x="330" y="210" width="100" height="70" as="geometry" />
        </mxCell>
        <mxCell id="eEyu-ZopEJ078TrSKXww-8" value="MO-62-03&lt;div&gt;(100)&lt;/div&gt;" style="rounded=1;whiteSpace=wrap;html=1;movable=1;resizable=1;rotatable=1;deletable=1;editable=1;locked=0;connectable=1;" vertex="1" parent="1">
          <mxGeometry x="330" y="280" width="100" height="100" as="geometry" />
        </mxCell>
        <mxCell id="eEyu-ZopEJ078TrSKXww-9" value="MO-62-01&lt;div&gt;(50)&lt;/div&gt;" style="rounded=1;whiteSpace=wrap;html=1;movable=1;resizable=1;rotatable=1;deletable=1;editable=1;locked=0;connectable=1;" vertex="1" parent="1">
          <mxGeometry x="330" y="380" width="100" height="50" as="geometry" />
        </mxCell>
        <mxCell id="eEyu-ZopEJ078TrSKXww-10" value="MO-62-04&lt;div&gt;(80)&lt;/div&gt;" style="rounded=1;whiteSpace=wrap;html=1;movable=1;resizable=1;rotatable=1;deletable=1;editable=1;locked=0;connectable=1;" vertex="1" parent="1">
          <mxGeometry x="330" y="430" width="100" height="80" as="geometry" />
        </mxCell>
        <mxCell id="eEyu-ZopEJ078TrSKXww-11" value="MO-62-02&lt;div&gt;(120)&lt;/div&gt;&lt;div&gt;已排产&lt;/div&gt;" style="rounded=1;whiteSpace=wrap;html=1;movable=1;resizable=1;rotatable=1;deletable=1;editable=1;locked=0;connectable=1;fillColor=light-dark(#FFFFFF,#190033);" vertex="1" parent="1">
          <mxGeometry x="330" y="510" width="100" height="120" as="geometry" />
        </mxCell>
        <mxCell id="eEyu-ZopEJ078TrSKXww-14" value="OA&lt;div&gt;(400)&lt;/div&gt;" style="rounded=1;whiteSpace=wrap;html=1;" vertex="1" parent="1">
          <mxGeometry x="-400" y="230" width="100" height="400" as="geometry" />
        </mxCell>
        <mxCell id="eEyu-ZopEJ078TrSKXww-15" value="OA额度400&lt;div&gt;&lt;br&gt;&lt;/div&gt;" style="shape=curlyBracket;whiteSpace=wrap;html=1;rounded=1;labelPosition=left;verticalLabelPosition=middle;align=right;verticalAlign=middle;" vertex="1" parent="1">
          <mxGeometry x="-460" y="230" width="40" height="400" as="geometry" />
        </mxCell>
        <mxCell id="eEyu-ZopEJ078TrSKXww-18" value="" style="endArrow=none;dashed=1;html=1;dashPattern=1 3;strokeWidth=2;rounded=0;" edge="1" parent="1">
          <mxGeometry width="50" height="50" relative="1" as="geometry">
            <mxPoint x="-489.99999999999886" y="630" as="sourcePoint" />
            <mxPoint x="1570" y="630" as="targetPoint" />
          </mxGeometry>
        </mxCell>
        <mxCell id="eEyu-ZopEJ078TrSKXww-21" value="MO-62-07&lt;div&gt;(40)&lt;/div&gt;" style="rounded=1;whiteSpace=wrap;html=1;movable=1;resizable=1;rotatable=1;deletable=1;editable=1;locked=0;connectable=1;" vertex="1" parent="1">
          <mxGeometry x="330" y="110" width="100" height="40" as="geometry" />
        </mxCell>
        <mxCell id="eEyu-ZopEJ078TrSKXww-22" value="MO-62-06&lt;div&gt;&lt;div&gt;(60)&lt;/div&gt;&lt;/div&gt;" style="rounded=1;whiteSpace=wrap;html=1;movable=1;resizable=1;rotatable=1;deletable=1;editable=1;locked=0;connectable=1;" vertex="1" parent="1">
          <mxGeometry x="330" y="150" width="100" height="60" as="geometry" />
        </mxCell>
        <mxCell id="eEyu-ZopEJ078TrSKXww-23" value="无风险" style="shape=curlyBracket;whiteSpace=wrap;html=1;rounded=1;labelPosition=left;verticalLabelPosition=middle;align=right;verticalAlign=middle;movable=1;resizable=1;rotatable=1;deletable=1;editable=1;locked=0;connectable=1;" vertex="1" parent="1">
          <mxGeometry x="260" y="280" width="50" height="350" as="geometry" />
        </mxCell>
        <mxCell id="eEyu-ZopEJ078TrSKXww-24" value="OA余额不足风险" style="shape=curlyBracket;whiteSpace=wrap;html=1;rounded=1;labelPosition=left;verticalLabelPosition=middle;align=right;verticalAlign=middle;movable=1;resizable=1;rotatable=1;deletable=1;editable=1;locked=0;connectable=1;" vertex="1" parent="1">
          <mxGeometry x="260" y="110" width="50" height="170" as="geometry" />
        </mxCell>
        <mxCell id="eEyu-ZopEJ078TrSKXww-27" value="MO-62-05&lt;div&gt;(70)&lt;/div&gt;" style="rounded=1;whiteSpace=wrap;html=1;movable=1;resizable=1;rotatable=1;deletable=1;editable=1;locked=0;connectable=1;" vertex="1" parent="1">
          <mxGeometry x="710" y="110" width="100" height="70" as="geometry" />
        </mxCell>
        <mxCell id="eEyu-ZopEJ078TrSKXww-28" value="MO-62-03&lt;div&gt;&lt;div&gt;(100)&lt;/div&gt;&lt;/div&gt;" style="rounded=1;whiteSpace=wrap;html=1;movable=1;resizable=1;rotatable=1;deletable=1;editable=1;locked=0;connectable=1;" vertex="1" parent="1">
          <mxGeometry x="710" y="180" width="100" height="100" as="geometry" />
        </mxCell>
        <mxCell id="eEyu-ZopEJ078TrSKXww-29" value="MO-62-01&lt;div&gt;(50)&lt;/div&gt;&lt;div&gt;已排产&lt;/div&gt;" style="rounded=1;whiteSpace=wrap;html=1;shadow=0;fillColor=light-dark(#FFFFFF,#190033);movable=1;resizable=1;rotatable=1;deletable=1;editable=1;locked=0;connectable=1;" vertex="1" parent="1">
          <mxGeometry x="710" y="460" width="100" height="50" as="geometry" />
        </mxCell>
        <mxCell id="eEyu-ZopEJ078TrSKXww-30" value="MO-62-04&lt;div&gt;(80)&lt;/div&gt;" style="rounded=1;whiteSpace=wrap;html=1;movable=1;resizable=1;rotatable=1;deletable=1;editable=1;locked=0;connectable=1;" vertex="1" parent="1">
          <mxGeometry x="710" y="280" width="100" height="80" as="geometry" />
        </mxCell>
        <mxCell id="eEyu-ZopEJ078TrSKXww-31" value="MO-62-02&lt;div&gt;(120)&lt;/div&gt;&lt;div&gt;已排产&lt;/div&gt;" style="rounded=1;whiteSpace=wrap;html=1;fillColor=light-dark(#000000,#190033);movable=1;resizable=1;rotatable=1;deletable=1;editable=1;locked=0;connectable=1;" vertex="1" parent="1">
          <mxGeometry x="710" y="510" width="100" height="120" as="geometry" />
        </mxCell>
        <mxCell id="eEyu-ZopEJ078TrSKXww-32" value="MO-62-07&lt;div&gt;(40)&lt;/div&gt;&lt;div&gt;排产特批&lt;/div&gt;" style="rounded=1;whiteSpace=wrap;html=1;movable=1;resizable=1;rotatable=1;deletable=1;editable=1;locked=0;connectable=1;fillColor=light-dark(#FFFFFF,#333333);" vertex="1" parent="1">
          <mxGeometry x="710" y="360" width="100" height="40" as="geometry" />
        </mxCell>
        <mxCell id="eEyu-ZopEJ078TrSKXww-33" value="MO-62-06&lt;div&gt;&lt;div&gt;(60)&lt;/div&gt;&lt;/div&gt;&lt;div&gt;排产特批&lt;/div&gt;" style="rounded=1;whiteSpace=wrap;html=1;movable=1;resizable=1;rotatable=1;deletable=1;editable=1;locked=0;connectable=1;fillColor=light-dark(#FFFFFF,#333333);" vertex="1" parent="1">
          <mxGeometry x="710" y="400" width="100" height="60" as="geometry" />
        </mxCell>
        <mxCell id="eEyu-ZopEJ078TrSKXww-44" value="MO-62-03&lt;div&gt;(100)&lt;/div&gt;" style="rounded=1;whiteSpace=wrap;html=1;movable=1;resizable=1;rotatable=1;deletable=1;editable=1;locked=0;connectable=1;" vertex="1" parent="1">
          <mxGeometry x="-50" y="280" width="100" height="100" as="geometry" />
        </mxCell>
        <mxCell id="eEyu-ZopEJ078TrSKXww-45" value="MO-62-01&lt;div&gt;(50)&lt;/div&gt;" style="rounded=1;whiteSpace=wrap;html=1;movable=1;resizable=1;rotatable=1;deletable=1;editable=1;locked=0;connectable=1;" vertex="1" parent="1">
          <mxGeometry x="-50" y="380" width="100" height="50" as="geometry" />
        </mxCell>
        <mxCell id="eEyu-ZopEJ078TrSKXww-46" value="MO-62-04&lt;div&gt;(80)&lt;/div&gt;" style="rounded=1;whiteSpace=wrap;html=1;movable=1;resizable=1;rotatable=1;deletable=1;editable=1;locked=0;connectable=1;" vertex="1" parent="1">
          <mxGeometry x="-50" y="430" width="100" height="80" as="geometry" />
        </mxCell>
        <mxCell id="eEyu-ZopEJ078TrSKXww-47" value="MO-62-02&lt;div&gt;(120)&lt;/div&gt;" style="rounded=1;whiteSpace=wrap;html=1;movable=1;resizable=1;rotatable=1;deletable=1;editable=1;locked=0;connectable=1;" vertex="1" parent="1">
          <mxGeometry x="-50" y="510" width="100" height="120" as="geometry" />
        </mxCell>
        <mxCell id="eEyu-ZopEJ078TrSKXww-48" value="" style="endArrow=none;dashed=1;html=1;dashPattern=1 3;strokeWidth=2;rounded=0;" edge="1" parent="1">
          <mxGeometry width="50" height="50" relative="1" as="geometry">
            <mxPoint x="-530" y="229" as="sourcePoint" />
            <mxPoint x="1520" y="220" as="targetPoint" />
          </mxGeometry>
        </mxCell>
        <mxCell id="eEyu-ZopEJ078TrSKXww-49" value="无风险" style="shape=curlyBracket;whiteSpace=wrap;html=1;rounded=1;labelPosition=left;verticalLabelPosition=middle;align=right;verticalAlign=middle;movable=1;resizable=1;rotatable=1;deletable=1;editable=1;locked=0;connectable=1;" vertex="1" parent="1">
          <mxGeometry x="-120" y="280" width="50" height="350" as="geometry" />
        </mxCell>
        <mxCell id="eEyu-ZopEJ078TrSKXww-51" value="无风险" style="shape=curlyBracket;whiteSpace=wrap;html=1;rounded=1;labelPosition=left;verticalLabelPosition=middle;align=right;verticalAlign=middle;movable=1;resizable=1;rotatable=1;deletable=1;editable=1;locked=0;connectable=1;" vertex="1" parent="1">
          <mxGeometry x="640" y="280" width="50" height="350" as="geometry" />
        </mxCell>
        <mxCell id="eEyu-ZopEJ078TrSKXww-52" value="OA余额不足风险" style="shape=curlyBracket;whiteSpace=wrap;html=1;rounded=1;labelPosition=left;verticalLabelPosition=middle;align=right;verticalAlign=middle;movable=1;resizable=1;rotatable=1;deletable=1;editable=1;locked=0;connectable=1;" vertex="1" parent="1">
          <mxGeometry x="640" y="110" width="50" height="170" as="geometry" />
        </mxCell>
        <mxCell id="eEyu-ZopEJ078TrSKXww-53" value="MO-62-05&lt;div&gt;(70)&lt;/div&gt;" style="rounded=1;whiteSpace=wrap;html=1;movable=1;resizable=1;rotatable=1;deletable=1;editable=1;locked=0;connectable=1;" vertex="1" parent="1">
          <mxGeometry x="1100" y="170" width="100" height="70" as="geometry" />
        </mxCell>
        <mxCell id="eEyu-ZopEJ078TrSKXww-54" value="MO-62-03&lt;div&gt;&lt;div&gt;(100)&lt;/div&gt;&lt;/div&gt;" style="rounded=1;whiteSpace=wrap;html=1;movable=1;resizable=1;rotatable=1;deletable=1;editable=1;locked=0;connectable=1;" vertex="1" parent="1">
          <mxGeometry x="1100" y="240" width="100" height="100" as="geometry" />
        </mxCell>
        <mxCell id="eEyu-ZopEJ078TrSKXww-55" value="MO-62-01&lt;div&gt;(50)&lt;/div&gt;&lt;div&gt;已排产&lt;/div&gt;" style="rounded=1;whiteSpace=wrap;html=1;shadow=0;fillColor=light-dark(#FFFFFF,#190033);movable=1;resizable=1;rotatable=1;deletable=1;editable=1;locked=0;connectable=1;" vertex="1" parent="1">
          <mxGeometry x="1100" y="520" width="100" height="50" as="geometry" />
        </mxCell>
        <mxCell id="eEyu-ZopEJ078TrSKXww-56" value="MO-62-04&lt;div&gt;(80)&lt;/div&gt;" style="rounded=1;whiteSpace=wrap;html=1;movable=1;resizable=1;rotatable=1;deletable=1;editable=1;locked=0;connectable=1;" vertex="1" parent="1">
          <mxGeometry x="1100" y="340" width="100" height="80" as="geometry" />
        </mxCell>
        <mxCell id="eEyu-ZopEJ078TrSKXww-64" style="edgeStyle=orthogonalEdgeStyle;rounded=0;orthogonalLoop=1;jettySize=auto;html=1;entryX=0;entryY=0.5;entryDx=0;entryDy=0;curved=1;dashed=1;" edge="1" parent="1" source="eEyu-ZopEJ078TrSKXww-57" target="eEyu-ZopEJ078TrSKXww-63">
          <mxGeometry relative="1" as="geometry" />
        </mxCell>
        <mxCell id="eEyu-ZopEJ078TrSKXww-67" value="转移60" style="edgeLabel;html=1;align=center;verticalAlign=middle;resizable=0;points=[];" vertex="1" connectable="0" parent="eEyu-ZopEJ078TrSKXww-64">
          <mxGeometry x="0.0878" y="-1" relative="1" as="geometry">
            <mxPoint as="offset" />
          </mxGeometry>
        </mxCell>
        <mxCell id="eEyu-ZopEJ078TrSKXww-57" value="MO-62-02&lt;div&gt;(60)&lt;/div&gt;&lt;div&gt;已排产&lt;/div&gt;" style="rounded=1;whiteSpace=wrap;html=1;fillColor=light-dark(#000000,#190033);movable=1;resizable=1;rotatable=1;deletable=1;editable=1;locked=0;connectable=1;" vertex="1" parent="1">
          <mxGeometry x="1100" y="570" width="100" height="60" as="geometry" />
        </mxCell>
        <mxCell id="eEyu-ZopEJ078TrSKXww-58" value="MO-62-07&lt;div&gt;(40)&lt;/div&gt;&lt;div&gt;排产特批&lt;/div&gt;" style="rounded=1;whiteSpace=wrap;html=1;movable=1;resizable=1;rotatable=1;deletable=1;editable=1;locked=0;connectable=1;fillColor=light-dark(#FFFFFF,#333333);" vertex="1" parent="1">
          <mxGeometry x="1100" y="420" width="100" height="40" as="geometry" />
        </mxCell>
        <mxCell id="eEyu-ZopEJ078TrSKXww-59" value="MO-62-06&lt;div&gt;&lt;div&gt;(60)&lt;/div&gt;&lt;/div&gt;&lt;div&gt;排产特批&lt;/div&gt;" style="rounded=1;whiteSpace=wrap;html=1;movable=1;resizable=1;rotatable=1;deletable=1;editable=1;locked=0;connectable=1;fillColor=light-dark(#FFFFFF,#333333);" vertex="1" parent="1">
          <mxGeometry x="1100" y="460" width="100" height="60" as="geometry" />
        </mxCell>
        <mxCell id="eEyu-ZopEJ078TrSKXww-61" value="无风险" style="shape=curlyBracket;whiteSpace=wrap;html=1;rounded=1;labelPosition=left;verticalLabelPosition=middle;align=right;verticalAlign=middle;movable=1;resizable=1;rotatable=1;deletable=1;editable=1;locked=0;connectable=1;" vertex="1" parent="1">
          <mxGeometry x="1025" y="340" width="50" height="290" as="geometry" />
        </mxCell>
        <mxCell id="eEyu-ZopEJ078TrSKXww-62" value="OA余额不足风险" style="shape=curlyBracket;whiteSpace=wrap;html=1;rounded=1;labelPosition=left;verticalLabelPosition=middle;align=right;verticalAlign=middle;movable=1;resizable=1;rotatable=1;deletable=1;editable=1;locked=0;connectable=1;" vertex="1" parent="1">
          <mxGeometry x="1020" y="170" width="55" height="170" as="geometry" />
        </mxCell>
        <mxCell id="eEyu-ZopEJ078TrSKXww-63" value="DO-62-02&lt;div&gt;(60)&lt;/div&gt;&lt;div&gt;已提交&lt;/div&gt;" style="rounded=1;whiteSpace=wrap;html=1;movable=1;resizable=1;rotatable=1;deletable=1;editable=1;locked=0;connectable=1;" vertex="1" parent="1">
          <mxGeometry x="1350" y="220" width="100" height="60" as="geometry" />
        </mxCell>
        <mxCell id="eEyu-ZopEJ078TrSKXww-65" value="" style="endArrow=none;dashed=1;html=1;dashPattern=1 3;strokeWidth=2;rounded=0;" edge="1" parent="1">
          <mxGeometry width="50" height="50" relative="1" as="geometry">
            <mxPoint x="1000" y="280.30999999999995" as="sourcePoint" />
            <mxPoint x="1520" y="280" as="targetPoint" />
          </mxGeometry>
        </mxCell>
      </root>
    </mxGraphModel>
  </diagram>
</mxfile>
